<?xml version="1.0" standalone='no'?><!-- IBoard SVG File --><svg xmlns="http://www.w3.org/2000/svg" xmlns:xlink="http://www.w3.org/1999/xlink" viewBox="248.94 319.76 195.87 94.29" height="87.29" width="202.87" version="1.1"><!-- SVG File --><polygon points="382.020386,397.791840 417.644653,397.791840 417.985077,398.381439 418.325500,398.971039 381.339539,398.971039 381.679962,398.381439 " style="fill:rgb(0,0,0);fill-opacity:1.000000"/><polygon points="415.432037,394.549011 431.542511,366.645538 432.053131,366.940338 432.563751,367.235138 416.453278,395.138611 415.942657,394.843811 " style="fill:rgb(0,0,0);fill-opacity:1.000000"/><polygon points="417.644653,397.791840 435.457245,366.940338 436.138062,366.940338 436.818878,366.940338 418.325500,398.971039 417.985077,398.381439 " style="fill:rgb(0,0,0);fill-opacity:1.000000"/><polygon points="435.457245,366.940338 417.644653,336.088379 417.985077,335.498779 418.325500,334.909180 436.818878,366.940338 436.138062,366.940338 " style="fill:rgb(0,0,0);fill-opacity:1.000000"/><polygon points="415.942627,339.626007 383.722412,339.626007 383.722412,339.036407 383.722412,338.446808 415.942627,338.446808 415.942627,339.036407 " style="fill:rgb(0,0,0);fill-opacity:1.000000"/><polygon points="417.644653,336.088379 382.020386,336.088379 381.679962,335.498779 381.339539,334.909180 418.325500,334.909180 417.985077,335.498779 " style="fill:rgb(0,0,0);fill-opacity:1.000000"/><polygon points="382.020386,336.088379 364.208099,366.940338 363.527283,366.940338 363.186859,366.350739 381.339539,334.909180 381.679962,335.498779 " style="fill:rgb(255,105,180);fill-opacity:1.000000"/><polygon points="368.122833,366.645538 384.233032,394.548981 383.722412,394.843781 383.211792,395.138580 367.101593,367.235138 367.612213,366.940338 " style="fill:rgb(0,0,0);fill-opacity:1.000000"/><polygon points="364.208099,366.940338 382.020386,397.791840 381.679962,398.381439 381.339539,398.971039 363.186859,367.529938 363.527283,366.940338 " style="fill:rgb(0,0,0);fill-opacity:1.000000"/><polygon points="273.104797,397.791840 308.729095,397.791840 309.069519,398.381439 309.409943,398.971039 272.423950,398.971039 272.764374,398.381439 " style="fill:rgb(0,0,0);fill-opacity:1.000000"/><polygon points="306.516449,394.548981 322.626648,366.645538 323.137268,366.940338 323.647888,367.235138 307.537689,395.138580 307.027069,394.843781 " style="fill:rgb(0,0,0);fill-opacity:1.000000"/><polygon points="308.729095,397.791840 326.541382,366.940338 327.222198,366.940338 327.562622,367.529938 309.409943,398.971039 309.069519,398.381439 " style="fill:rgb(0,0,0);fill-opacity:1.000000"/><polygon points="326.541382,366.940338 308.729126,336.088379 309.069550,335.498779 309.409973,334.909180 327.562622,366.350739 327.222198,366.940338 " style="fill:rgb(255,105,180);fill-opacity:1.000000"/><polygon points="307.027100,339.626007 274.806854,339.626007 274.806854,339.036407 274.806854,338.446808 307.027100,338.446808 307.027100,339.036407 " style="fill:rgb(0,0,0);fill-opacity:1.000000"/><polygon points="308.729126,336.088379 273.104828,336.088379 272.764404,335.498779 272.423981,334.909180 309.409973,334.909180 309.069550,335.498779 " style="fill:rgb(0,0,0);fill-opacity:1.000000"/><polygon points="273.104828,336.088379 255.292236,366.940338 254.611420,366.940338 253.930603,366.940338 272.423981,334.909180 272.764404,335.498779 " style="fill:rgb(0,0,0);fill-opacity:1.000000"/><polygon points="259.206970,366.645538 275.317413,394.549011 274.806793,394.843811 274.296173,395.138611 258.185730,367.235138 258.696350,366.940338 " style="fill:rgb(0,0,0);fill-opacity:1.000000"/><polygon points="255.292236,366.940338 273.104797,397.791840 272.764374,398.381439 272.423950,398.971039 253.930603,366.940338 254.611420,366.940338 " style="fill:rgb(0,0,0);fill-opacity:1.000000"/><polygon points="327.562622,366.350739 363.186859,366.350739 363.527283,366.940338 363.186859,367.529938 327.562622,367.529938 327.222198,366.940338 " style="fill:rgb(255,105,180);fill-opacity:1.000000"/><text xml:space="preserve" x="305.082794" y="331.713226" textLength="7.230000" lengthAdjust="spacingAndGlyphs"><tspan font-family="Arial" font-weight="normal" baseline-shift="0" font-size="13" fill="#000000">2</tspan></text><text xml:space="preserve" x="327.082794" y="363.163239" textLength="7.230000" lengthAdjust="spacingAndGlyphs"><tspan font-family="Arial" font-weight="normal" baseline-shift="0" font-size="13" fill="#000000">3</tspan></text><text xml:space="preserve" x="351.332794" y="363.163239" textLength="14.460000" lengthAdjust="spacingAndGlyphs"><tspan font-family="Arial" font-weight="normal" baseline-shift="0" font-size="13" fill="#000000">12</tspan></text><text xml:space="preserve" x="373.582794" y="331.713226" textLength="14.460000" lengthAdjust="spacingAndGlyphs"><tspan font-family="Arial" font-weight="normal" baseline-shift="0" font-size="13" fill="#000000">14</tspan></text><path d="M 352.211304 370.671844 A 7.140937 7.140937 0 1 1 345.153503 359.865295" style="fill:none;fill-opacity:0;stroke:rgb(128,128,128);stroke-width:1.179213;stroke-opacity:1.000000" stroke-linecap="butt"/><polygon points="352.938202,364.806946 344.708923,357.653931 345.153503,359.865295 342.188171,362.983948 " style="fill:rgb(128,128,128);fill-opacity:1.000000"/></svg>