<?xml version="1.0" standalone="no"?><!DOCTYPE svg PUBLIC "-//W3C//DTD SVG 1.1//EN" "http://www.w3.org/Graphics/SVG/1.1/DTD/svg11.dtd"><svg t="1662199356993" class="icon" viewBox="0 0 1024 1024" version="1.1" xmlns="http://www.w3.org/2000/svg" p-id="2808" xmlns:xlink="http://www.w3.org/1999/xlink" width="200" height="200"><path d="M725.333333 725.333333V128a85.333333 85.333333 0 0 0-85.333333-85.333333H376.746667a85.333333 85.333333 0 0 0-60.586667 25.173333L110.506667 273.493333A85.333333 85.333333 0 0 0 85.333333 334.08V725.333333a85.333333 85.333333 0 0 0 85.333334 85.333334h469.333333a85.333333 85.333333 0 0 0 85.333333-85.333334zM384 298.666667a42.666667 42.666667 0 0 1-42.666667 42.666666H162.986667L384 120.32z m426.666667-85.333334v597.333334a85.333333 85.333333 0 0 1-85.333334 85.333333H256a85.333333 85.333333 0 0 0 85.333333 85.333333h384a170.666667 170.666667 0 0 0 170.666667-170.666666V298.666667a85.333333 85.333333 0 0 0-85.333333-85.333334z" p-id="2809"></path></svg>