{
   "accessors" : 
   [
      {
         "bufferView" : 0,
         "byteOffset" : 0,
         "componentType" : 5126,
         "count" : 4117,
         "max" : [ 2.0094060000000025, 1.9000000000000035, 1.0000000000000027 ],
         "min" : [ 0.10940600000000078, -2.0, -0.99999999999999911 ],
         "type" : "VEC3"
      },
      {
         "bufferView" : 1,
         "byteOffset" : 0,
         "componentType" : 5125,
         "count" : 4117,
         "type" : "SCALAR"
      },
      {
         "bufferView" : 2,
         "byteOffset" : 0,
         "componentType" : 5126,
         "count" : 11863,
         "max" : [ 3.1094060000000034, 0.80000000000000249, 1.7000000000000033 ],
         "min" : [ -0.29059399999999957, -0.79999999999999893, -1.6999999999999997 ],
         "type" : "VEC3"
      },
      {
         "bufferView" : 3,
         "byteOffset" : 0,
         "componentType" : 5125,
         "count" : 11863,
         "type" : "SCALAR"
      },
      {
         "bufferView" : 4,
         "byteOffset" : 0,
         "componentType" : 5126,
         "count" : 2,
         "max" : [ 0.0, 1.0, 0.0 ],
         "min" : [ 0.0, 0.0, 0.0 ],
         "type" : "VEC3"
      },
      {
         "bufferView" : 5,
         "byteOffset" : 0,
         "componentType" : 5126,
         "count" : 2,
         "normalized" : false,
         "type" : "VEC2"
      },
      {
         "bufferView" : 6,
         "byteOffset" : 0,
         "componentType" : 5125,
         "count" : 2,
         "type" : "SCALAR"
      },
      {
         "bufferView" : 7,
         "byteOffset" : 0,
         "componentType" : 5126,
         "count" : 2,
         "max" : [ 0.0, 1.0, 0.0 ],
         "min" : [ 0.0, 0.0, 0.0 ],
         "type" : "VEC3"
      },
      {
         "bufferView" : 8,
         "byteOffset" : 0,
         "componentType" : 5126,
         "count" : 2,
         "normalized" : false,
         "type" : "VEC2"
      },
      {
         "bufferView" : 9,
         "byteOffset" : 0,
         "componentType" : 5125,
         "count" : 2,
         "type" : "SCALAR"
      },
      {
         "bufferView" : 10,
         "byteOffset" : 0,
         "componentType" : 5126,
         "count" : 2,
         "max" : [ 0.0, 1.0, 0.0 ],
         "min" : [ 0.0, 0.0, 0.0 ],
         "type" : "VEC3"
      },
      {
         "bufferView" : 11,
         "byteOffset" : 0,
         "componentType" : 5126,
         "count" : 2,
         "normalized" : false,
         "type" : "VEC2"
      },
      {
         "bufferView" : 12,
         "byteOffset" : 0,
         "componentType" : 5125,
         "count" : 2,
         "type" : "SCALAR"
      },
      {
         "bufferView" : 13,
         "byteOffset" : 0,
         "componentType" : 5126,
         "count" : 17,
         "max" : [ 0.40000000596046448, 0.5, 0.40000000596046448 ],
         "min" : [ -0.40000000596046448, -0.5, -0.40000000596046448 ],
         "type" : "VEC3"
      },
      {
         "bufferView" : 14,
         "byteOffset" : 0,
         "componentType" : 5125,
         "count" : 90,
         "type" : "SCALAR"
      },
      {
         "bufferView" : 15,
         "byteOffset" : 0,
         "componentType" : 5126,
         "count" : 17,
         "max" : [ 0.40000000596046448, 0.5, 0.40000000596046448 ],
         "min" : [ -0.40000000596046448, -0.5, -0.40000000596046448 ],
         "type" : "VEC3"
      },
      {
         "bufferView" : 16,
         "byteOffset" : 0,
         "componentType" : 5125,
         "count" : 90,
         "type" : "SCALAR"
      },
      {
         "bufferView" : 17,
         "byteOffset" : 0,
         "componentType" : 5126,
         "count" : 17,
         "max" : [ 0.40000000596046448, 0.5, 0.40000000596046448 ],
         "min" : [ -0.40000000596046448, -0.5, -0.40000000596046448 ],
         "type" : "VEC3"
      },
      {
         "bufferView" : 18,
         "byteOffset" : 0,
         "componentType" : 5125,
         "count" : 90,
         "type" : "SCALAR"
      }
   ],
   "asset" : 
   {
      "generator" : "VTK",
      "version" : "2.0"
   },
   "bufferViews" : 
   [
      {
         "buffer" : 0,
         "byteLength" : 49404,
         "byteOffset" : 0
      },
      {
         "buffer" : 1,
         "byteLength" : 16468,
         "byteOffset" : 0
      },
      {
         "buffer" : 2,
         "byteLength" : 142356,
         "byteOffset" : 0
      },
      {
         "buffer" : 3,
         "byteLength" : 47452,
         "byteOffset" : 0
      },
      {
         "buffer" : 4,
         "byteLength" : 24,
         "byteOffset" : 0
      },
      {
         "buffer" : 5,
         "byteLength" : 16,
         "byteOffset" : 0
      },
      {
         "buffer" : 6,
         "byteLength" : 8,
         "byteOffset" : 0
      },
      {
         "buffer" : 7,
         "byteLength" : 24,
         "byteOffset" : 0
      },
      {
         "buffer" : 8,
         "byteLength" : 16,
         "byteOffset" : 0
      },
      {
         "buffer" : 9,
         "byteLength" : 8,
         "byteOffset" : 0
      },
      {
         "buffer" : 10,
         "byteLength" : 24,
         "byteOffset" : 0
      },
      {
         "buffer" : 11,
         "byteLength" : 16,
         "byteOffset" : 0
      },
      {
         "buffer" : 12,
         "byteLength" : 8,
         "byteOffset" : 0
      },
      {
         "buffer" : 13,
         "byteLength" : 204,
         "byteOffset" : 0
      },
      {
         "buffer" : 14,
         "byteLength" : 360,
         "byteOffset" : 0
      },
      {
         "buffer" : 15,
         "byteLength" : 204,
         "byteOffset" : 0
      },
      {
         "buffer" : 16,
         "byteLength" : 360,
         "byteOffset" : 0
      },
      {
         "buffer" : 17,
         "byteLength" : 204,
         "byteOffset" : 0
      },
      {
         "buffer" : 18,
         "byteLength" : 360,
         "byteOffset" : 0
      }
   ],
   "buffers" : 
   [
      {
         "byteLength" : 49404,
         "uri" : "data:application/octet-stream;base64,"
      },
      {
         "byteLength" : 16468,
         "uri" : "data:application/octet-stream;base64,"
      },
      {
         "byteLength" : 142356,
         "uri" : "data:application/octet-stream;base64,"
      },
      {
         "byteLength" : 47452,
         "uri" : "data:application/octet-stream;base64,"
      },
      {
         "byteLength" : 24,
         "uri" : "data:application/octet-stream;base64,"
      },
      {
         "byteLength" : 16,
         "uri" : "data:application/octet-stream;base64,"
      },
      {
         "byteLength" : 8,
         "uri" : "data:application/octet-stream;base64,"
      },
      {
         "byteLength" : 24,
         "uri" : "data:application/octet-stream;base64,"
      },
      {
         "byteLength" : 16,
         "uri" : "data:application/octet-stream;base64,"
      },
      {
         "byteLength" : 8,
         "uri" : "data:application/octet-stream;base64,"
      },
      {
         "byteLength" : 24,
         "uri" : "data:application/octet-stream;base64,"
      },
      {
         "byteLength" : 16,
         "uri" : "data:application/octet-stream;base64,"
      },
      {
         "byteLength" : 8,
         "uri" : "data:application/octet-stream;base64,"
      },
      {
         "byteLength" : 204,
         "uri" : "data:application/octet-stream;base64,"
      },
      {
         "byteLength" : 360,
         "uri" : "data:application/octet-stream;base64,"
      },
      {
         "byteLength" : 204,
         "uri" : "data:application/octet-stream;base64,"
      },
      {
         "byteLength" : 360,
         "uri" : "data:application/octet-stream;base64,"
      },
      {
         "byteLength" : 204,
         "uri" : "data:application/octet-stream;base64,"
      },
      {
         "byteLength" : 360,
         "uri" : "data:application/octet-stream;base64,"
      }
   ],
   "cameras" : 
   [
      {
         "perspective" : 
         {
            "aspectRatio" : 1.2769516728624535,
            "yfov" : 0.52359877559829882,
            "zfar" : 37.083097816589841,
            "znear" : 26.266470482435274
         },
         "type" : "perspective"
      },
      {
         "perspective" : 
         {
            "aspectRatio" : 1.2685185185185186,
            "yfov" : 0.52359877559829882,
            "zfar" : 9.9832981736898141,
            "znear" : 4.0904132306716106
         },
         "type" : "perspective"
      }
   ],
   "materials" : 
   [
      {
         "pbrMetallicRoughness" : 
         {
            "baseColorFactor" : [ 0.75686274509803919, 0.17254901960784313, 0.12156862745098039, 1.0 ],
            "metallicFactor" : 0.0,
            "roughnessFactor" : 1.0
         }
      },
      {
         "pbrMetallicRoughness" : 
         {
            "baseColorFactor" : [ 0.51764705882352946, 0.65490196078431373, 0.16078431372549021, 1.0 ],
            "metallicFactor" : 0.0,
            "roughnessFactor" : 1.0
         }
      },
      {
         "pbrMetallicRoughness" : 
         {
            "baseColorFactor" : [ 1.0, 0.38823529411764707, 0.27843137254901962, 1.0 ],
            "metallicFactor" : 0.0,
            "roughnessFactor" : 1.0
         }
      },
      {
         "pbrMetallicRoughness" : 
         {
            "baseColorFactor" : [ 0.1803921568627451, 0.54509803921568623, 0.3411764705882353, 1.0 ],
            "metallicFactor" : 0.0,
            "roughnessFactor" : 1.0
         }
      },
      {
         "pbrMetallicRoughness" : 
         {
            "baseColorFactor" : [ 0.0, 0.0, 0.80392156862745101, 1.0 ],
            "metallicFactor" : 0.0,
            "roughnessFactor" : 1.0
         }
      },
      {
         "pbrMetallicRoughness" : 
         {
            "baseColorFactor" : [ 1.0, 0.38823529411764707, 0.27843137254901962, 1.0 ],
            "metallicFactor" : 0.0,
            "roughnessFactor" : 1.0
         }
      },
      {
         "pbrMetallicRoughness" : 
         {
            "baseColorFactor" : [ 0.1803921568627451, 0.54509803921568623, 0.3411764705882353, 1.0 ],
            "metallicFactor" : 0.0,
            "roughnessFactor" : 1.0
         }
      },
      {
         "pbrMetallicRoughness" : 
         {
            "baseColorFactor" : [ 0.0, 0.0, 0.80392156862745101, 1.0 ],
            "metallicFactor" : 0.0,
            "roughnessFactor" : 1.0
         }
      }
   ],
   "meshes" : 
   [
      {
         "name" : "mesh0",
         "primitives" : 
         [
            {
               "attributes" : 
               {
                  "POSITION" : 0
               },
               "indices" : 1,
               "material" : 0,
               "mode" : 0
            }
         ]
      },
      {
         "name" : "mesh1",
         "primitives" : 
         [
            {
               "attributes" : 
               {
                  "POSITION" : 2
               },
               "indices" : 3,
               "material" : 1,
               "mode" : 0
            }
         ]
      },
      {
         "name" : "mesh2",
         "primitives" : 
         [
            {
               "attributes" : 
               {
                  "POSITION" : 4,
                  "TEXCOORD_0" : 5
               },
               "indices" : 6,
               "material" : 2,
               "mode" : 1
            }
         ]
      },
      {
         "name" : "mesh3",
         "primitives" : 
         [
            {
               "attributes" : 
               {
                  "POSITION" : 7,
                  "TEXCOORD_0" : 8
               },
               "indices" : 9,
               "material" : 3,
               "mode" : 1
            }
         ]
      },
      {
         "name" : "mesh4",
         "primitives" : 
         [
            {
               "attributes" : 
               {
                  "POSITION" : 10,
                  "TEXCOORD_0" : 11
               },
               "indices" : 12,
               "material" : 4,
               "mode" : 1
            }
         ]
      },
      {
         "name" : "mesh5",
         "primitives" : 
         [
            {
               "attributes" : 
               {
                  "POSITION" : 13
               },
               "indices" : 14,
               "material" : 5,
               "mode" : 4
            }
         ]
      },
      {
         "name" : "mesh6",
         "primitives" : 
         [
            {
               "attributes" : 
               {
                  "POSITION" : 15
               },
               "indices" : 16,
               "material" : 6,
               "mode" : 4
            }
         ]
      },
      {
         "name" : "mesh7",
         "primitives" : 
         [
            {
               "attributes" : 
               {
                  "POSITION" : 17
               },
               "indices" : 18,
               "material" : 7,
               "mode" : 4
            }
         ]
      }
   ],
   "nodes" : 
   [
      {
         "matrix" : 
         [
            0.0,
            0.0,
            1.0000000000000004,
            0.0,
            1.0000000000000004,
            0.0,
            0.0,
            0.0,
            0.0,
            1.0000000000000004,
            0.0,
            0.0,
            0.0,
            0.0,
            0.0,
            1.0
         ],
         "mesh" : 0,
         "name" : "mesh0"
      },
      {
         "matrix" : 
         [
            0.0,
            0.0,
            1.0000000000000004,
            0.0,
            1.0000000000000004,
            0.0,
            0.0,
            0.0,
            0.0,
            1.0000000000000004,
            0.0,
            0.0,
            0.0,
            0.0,
            0.0,
            1.0
         ],
         "mesh" : 1,
         "name" : "mesh1"
      },
      {
         "camera" : 0,
         "matrix" : 
         [
            -0.59328245987348449,
            0.80404748954229222,
            0.039032772988924547,
            0.0,
            -0.76753516329478999,
            -0.57962874014025134,
            0.27371572243746828,
            0.0,
            0.24270495650585203,
            0.13243171132384643,
            0.96101828594638605,
            0.0,
            0.79779910047570901,
            -1.162210793052858,
            -31.063344486539528,
            1.0
         ],
         "name" : "Camera Node"
      },
      {
         "children" : [ 0, 1, 2 ],
         "name" : "Renderer Node"
      },
      {
         "matrix" : 
         [
            0.0,
            -0.80000000000000049,
            0.0,
            0.0,
            0.80000000000000049,
            0.0,
            0.0,
            0.0,
            0.0,
            0.0,
            0.80000000000000049,
            0.0,
            0.0,
            0.0,
            0.0,
            1.0
         ],
         "mesh" : 2,
         "name" : "mesh2"
      },
      {
         "matrix" : 
         [
            0.80000000000000004,
            0.0,
            0.0,
            0.0,
            0.0,
            0.80000000000000004,
            0.0,
            0.0,
            0.0,
            0.0,
            0.80000000000000004,
            0.0,
            0.0,
            0.0,
            0.0,
            1.0
         ],
         "mesh" : 3,
         "name" : "mesh3"
      },
      {
         "matrix" : 
         [
            0.80000000000000049,
            0.0,
            0.0,
            0.0,
            0.0,
            0.0,
            0.80000000000000049,
            0.0,
            0.0,
            -0.80000000000000049,
            0.0,
            0.0,
            0.0,
            0.0,
            0.0,
            1.0
         ],
         "mesh" : 4,
         "name" : "mesh4"
      },
      {
         "matrix" : 
         [
            0.0,
            -0.20000000000000012,
            0.0,
            0.0,
            0.20000000000000012,
            0.0,
            0.0,
            0.0,
            0.0,
            0.0,
            0.20000000000000012,
            0.0,
            0.90000000000000036,
            0.0,
            0.0,
            1.0
         ],
         "mesh" : 5,
         "name" : "mesh5"
      },
      {
         "matrix" : 
         [
            0.20000000000000001,
            0.0,
            0.0,
            0.0,
            0.0,
            0.20000000000000001,
            0.0,
            0.0,
            0.0,
            0.0,
            0.20000000000000001,
            0.0,
            0.0,
            0.90000000000000002,
            0.0,
            1.0
         ],
         "mesh" : 6,
         "name" : "mesh6"
      },
      {
         "matrix" : 
         [
            0.20000000000000012,
            0.0,
            0.0,
            0.0,
            0.0,
            0.0,
            0.20000000000000012,
            0.0,
            0.0,
            -0.20000000000000012,
            0.0,
            0.0,
            0.0,
            0.0,
            0.90000000000000036,
            1.0
         ],
         "mesh" : 7,
         "name" : "mesh7"
      },
      {
         "camera" : 1,
         "matrix" : 
         [
            -0.59328245987348438,
            0.80404748954229222,
            0.039032772988924547,
            0.0,
            -0.76753516329478999,
            -0.57962874014025134,
            0.27371572243746828,
            0.0,
            0.24270495650585203,
            0.1324317113238464,
            0.96101828594638605,
            0.0,
            0.0,
            2.2204460492503131e-16,
            -6.6921304299024653,
            1.0
         ],
         "name" : "Camera Node"
      },
      {
         "children" : [ 4, 5, 6, 7, 8, 9, 10 ],
         "name" : "Renderer Node"
      }
   ],
   "scene" : 0,
   "scenes" : 
   [
      {
         "name" : "Layer 0",
         "nodes" : [ 3, 11 ]
      }
   ]
}